# xmcd
#
# Track frame offsets:
#	150
#	14930
#	28670
#	43330
#	58710
#	72462
#	88160
#	103722
#	117282
#	131215
#	144995
#	159762
#
# Disc length: 2330 seconds
#
# Revision: 0
# Processed by: cddbd v1.5.1PL2 Copyright (c) Steve Scherf et al.
# Submitted via: audiograbber 1.81.02
#
DISCID=b109180c
DTITLE=διάφοροι - Όλοι οι ρεμπέτες του ντουνιά(3)
DYEAR=1900
DGENRE=Folk
TTITLE0=Εσκενάζυ - Κέρνα μας
TTITLE1=Σωφρνίου(Τούντα) - Μικράκι μου
TTITLE2=Εσκενάζυ - Δυο σεβντάδες
TTITLE3=Σωφρνίου(Τούντα) - Ταταυλινή κυρά
TTITLE4=Παπαϊωάνννου - Αλέγρο
TTITLE5=Παπαϊωάνννου - ’πονη σκληρή γυναίκα
TTITLE6=Ρούκουνας - Θα σε κάνω ταίρι μου(Εργάτης τιμημένος)
TTITLE7=Στ.Περπινιάδης - Αν ήμουν πέτρα
TTITLE8=Ρούκουνας - Βαγγελιώ μου
TTITLE9=Στ.Περπινιάδης - Η γαρυφαλιά
TTITLE10=Στ.Περπινιάδης - Λιώνω σαν κερί
TTITLE11=Ρούκουνας - Γιαγκίνι
EXTD=
EXTT0=
EXTT1=
EXTT2=
EXTT3=
EXTT4=
EXTT5=
EXTT6=
EXTT7=
EXTT8=
EXTT9=
EXTT10=
EXTT11=
PLAYORDER=
